M48
; DRILL file {KiCad 9.0.7} date 2026-03-17T03:18:30+0300
; FORMAT={-:-/ absolute / metric / decimal}
; #@! TF.CreationDate,2026-03-17T03:18:30+03:00
; #@! TF.GenerationSoftware,Kicad,Pcbnew,9.0.7
; #@! TF.FileFunction,Plated,1,2,PTH
FMAT,2
METRIC
; #@! TA.AperFunction,Plated,PTH,ComponentDrill
T1C0.750
; #@! TA.AperFunction,Plated,PTH,ComponentDrill
T2C0.800
; #@! TA.AperFunction,Plated,PTH,ComponentDrill
T3C0.900
; #@! TA.AperFunction,Plated,PTH,ComponentDrill
T4C1.600
%
G90
G05
T1
X72.5Y-46.73
X72.5Y-48.0
X72.5Y-49.27
T2
X68.88Y-53.5
X76.5Y-53.5
X78.0Y-33.45
X78.0Y-41.07
X78.0Y-46.75
X78.0Y-49.25
X82.96Y-67.0
X84.055Y-46.185
X84.055Y-53.805
X84.5Y-58.5
X85.5Y-67.0
X85.56Y-33.45
X85.56Y-41.07
X86.5Y-58.5
X86.595Y-46.185
X86.595Y-53.805
X88.04Y-67.0
X89.135Y-46.185
X89.135Y-53.805
X91.675Y-46.185
X91.675Y-53.805
X93.0Y-33.69
X93.0Y-41.31
X95.46Y-68.5
X96.5Y-48.75
X96.5Y-51.25
X96.5Y-55.69
X96.5Y-63.31
X98.0Y-68.5
X100.5Y-33.69
X100.5Y-41.31
X100.54Y-68.5
X101.0Y-55.69
X101.0Y-63.31
T3
X78.03Y-27.235
X78.03Y-29.775
X85.5Y-27.235
X85.5Y-29.775
X92.97Y-27.235
X92.97Y-29.775
X100.44Y-27.235
X100.44Y-29.775
T4
X73.0Y-58.0
X73.0Y-64.0
X77.7Y-61.0
M30
